<svg width="206" height="231" viewBox="0 0 206 231" fill="none" xmlns="http://www.w3.org/2000/svg">
<g clip-path="url(#clip0_633_24252)">
<path d="M193.978 48.8232L115.022 3.23907C107.578 -1.05886 98.4216 -1.05886 90.9778 3.23907L12.0222 48.8232C4.57845 53.1111 0 61.0557 0 69.6416V160.81C0 169.406 4.57845 177.34 12.0222 181.628L90.9778 227.212C98.4216 231.51 107.578 231.51 115.022 227.212L193.978 181.628C201.422 177.33 206 169.396 206 160.81V69.6416C206 61.0557 201.422 53.1111 193.978 48.8232ZM96.0672 47.2603C97.5199 44.7557 100.115 43.2529 103.01 43.2529C105.905 43.2529 108.5 44.7557 109.953 47.2603L161.257 136.124C162.951 139.05 162.65 142.616 160.506 145.221C158.943 147.114 156.689 148.146 154.355 148.146C153.473 148.146 152.591 148.006 151.72 147.706L109.853 133.329C105.445 131.816 100.596 131.816 96.1874 133.329L54.3202 147.706C51.1243 148.798 47.678 147.826 45.534 145.221C43.39 142.616 43.0895 139.04 44.7826 136.124L96.0873 47.2603H96.0672ZM20.2273 144.339C19.8666 144.339 19.506 144.289 19.1453 144.199C17.342 143.718 16.1698 142.205 16.1598 140.342L15.8593 81.4133C15.8192 73.4686 20.077 66.095 26.9798 62.1578L78.1642 32.9539C79.7772 32.0322 81.6807 32.2826 82.9931 33.6051C84.3055 34.9275 84.556 36.821 83.6243 38.434L23.6436 142.316C22.9022 143.598 21.6299 144.329 20.2273 144.329V144.339ZM164.854 176.879L115.042 204.17C111.275 206.234 107.138 207.265 103.01 207.265C98.8824 207.265 94.7448 206.234 90.9778 204.17L41.1659 176.879C39.4227 175.928 38.4309 174.104 38.5812 172.121C38.7314 170.137 39.9737 168.484 41.8372 167.793L94.324 148.367C99.9343 146.293 106.106 146.293 111.716 148.367L164.203 167.793C166.066 168.484 167.309 170.137 167.459 172.121C167.609 174.104 166.617 175.928 164.874 176.879H164.854ZM189.84 140.352C189.84 142.215 188.658 143.728 186.865 144.209C186.504 144.309 186.133 144.349 185.783 144.349C184.38 144.349 183.108 143.618 182.366 142.336L122.386 38.454C121.454 36.8411 121.705 34.9476 123.017 33.6251C124.329 32.3027 126.223 32.0522 127.846 32.9739L179.03 62.1778C185.933 66.1151 190.191 73.4887 190.151 81.4333L189.85 140.362L189.84 140.352Z" fill="white"/>
<path d="M82.9935 33.6116C81.6811 32.2892 79.7776 32.0287 78.1646 32.9604L26.9802 62.1643C20.0875 66.1015 15.8196 73.4751 15.8597 81.4198L16.1602 140.348C16.1602 142.212 17.3424 143.725 19.1457 144.206C19.5064 144.306 19.8771 144.346 20.2277 144.346C21.6303 144.346 22.9026 143.615 23.644 142.332L83.6247 38.4505C84.5564 36.8375 84.3059 34.9441 82.9935 33.6216V33.6116Z" fill="#914FED"/>
<path d="M179.019 62.1638L127.835 32.96C126.212 32.0383 124.318 32.2887 123.006 33.6112C121.693 34.9336 121.443 36.8271 122.375 38.4401L182.355 142.322C183.097 143.604 184.369 144.335 185.772 144.335C186.122 144.335 186.493 144.285 186.854 144.195C188.657 143.714 189.819 142.201 189.829 140.338L190.13 81.4093C190.17 73.4647 185.912 66.0911 179.009 62.1538L179.019 62.1638Z" fill="#914FED"/>
<path d="M45.514 145.218C47.6579 147.823 51.1043 148.795 54.3002 147.703L96.1674 133.326C100.576 131.813 105.424 131.813 109.833 133.326L151.7 147.703C152.571 148.003 153.463 148.143 154.335 148.143C156.679 148.143 158.923 147.112 160.486 145.218C162.63 142.613 162.931 139.037 161.237 136.121L109.933 47.2574C108.48 44.7528 105.885 43.25 102.99 43.25C100.095 43.25 97.4999 44.7528 96.0472 47.2574L44.7425 136.121C43.0494 139.047 43.35 142.613 45.4939 145.218H45.514Z" fill="#1D69F4"/>
<path d="M164.182 167.778L111.695 148.352C106.084 146.278 99.913 146.278 94.3027 148.352L41.8159 167.778C39.9524 168.469 38.7001 170.122 38.5599 172.106C38.4096 174.09 39.4014 175.913 41.1446 176.865L90.9565 204.155C94.7235 206.219 98.8611 207.251 102.989 207.251C107.116 207.251 111.254 206.219 115.021 204.155L164.833 176.865C166.576 175.913 167.568 174.09 167.418 172.106C167.267 170.122 166.025 168.469 164.162 167.778H164.182Z" fill="#488DF3"/>
</g>
<defs>
<clipPath id="clip0_633_24252">
<rect width="206" height="230.435" fill="white" transform="translate(0 0.0234375)"/>
</clipPath>
</defs>
</svg>
