<svg xmlns="http://www.w3.org/2000/svg" xmlns:xlink="http://www.w3.org/1999/xlink" width="500" zoomAndPan="magnify" viewBox="0 0 375 374.999991" height="500" preserveAspectRatio="xMidYMid meet" version="1.0"><defs><filter x="0%" y="0%" width="100%" height="100%" id="3f40b5ee74"><feColorMatrix values="0 0 0 0 1 0 0 0 0 1 0 0 0 0 1 0 0 0 1 0" color-interpolation-filters="sRGB"/></filter><mask id="0f908de542"><g filter="url(#3f40b5ee74)"><rect x="-37.5" width="450" fill="#000000" y="-37.499999" height="449.999989" fill-opacity="0.969"/></g></mask><clipPath id="88272fc405"><path d="M 1 2 L 96 2 L 96 67.921875 L 1 67.921875 Z M 1 2 " clip-rule="nonzero"/></clipPath><clipPath id="ae102ea6a6"><rect x="0" width="98" y="0" height="68"/></clipPath><mask id="76c5e528ec"><g filter="url(#3f40b5ee74)"><rect x="-37.5" width="450" fill="#000000" y="-37.499999" height="449.999989" fill-opacity="0.984"/></g></mask><clipPath id="52fac639e1"><path d="M 1 1 L 91 1 L 91 110.320312 L 1 110.320312 Z M 1 1 " clip-rule="nonzero"/></clipPath><clipPath id="b71e299cf3"><rect x="0" width="93" y="0" height="111"/></clipPath><mask id="023519c1a2"><g filter="url(#3f40b5ee74)"><rect x="-37.5" width="450" fill="#000000" y="-37.499999" height="449.999989" fill-opacity="0.966"/></g></mask><clipPath id="bd296784f8"><path d="M 0.121094 1 L 56 1 L 56 55 L 0.121094 55 Z M 0.121094 1 " clip-rule="nonzero"/></clipPath><clipPath id="20dea0454a"><rect x="0" width="57" y="0" height="56"/></clipPath><mask id="66be707c10"><g filter="url(#3f40b5ee74)"><rect x="-37.5" width="450" fill="#000000" y="-37.499999" height="449.999989" fill-opacity="0.979"/></g></mask><clipPath id="1ee67cb086"><path d="M 1 0 L 78 0 L 78 79.921875 L 1 79.921875 Z M 1 0 " clip-rule="nonzero"/></clipPath><clipPath id="cd376b107f"><rect x="0" width="79" y="0" height="80"/></clipPath><mask id="c304b1f279"><g filter="url(#3f40b5ee74)"><rect x="-37.5" width="450" fill="#000000" y="-37.499999" height="449.999989" fill-opacity="0.982"/></g></mask><clipPath id="1ae85a5374"><path d="M 0.839844 0.078125 L 63 0.078125 L 63 139 L 0.839844 139 Z M 0.839844 0.078125 " clip-rule="nonzero"/></clipPath><clipPath id="6b22c7898e"><rect x="0" width="64" y="0" height="140"/></clipPath><mask id="0d710ee4ca"><g filter="url(#3f40b5ee74)"><rect x="-37.5" width="450" fill="#000000" y="-37.499999" height="449.999989" fill-opacity="0.979"/></g></mask><clipPath id="0a7148b338"><path d="M 1 0.078125 L 91 0.078125 L 91 144 L 1 144 Z M 1 0.078125 " clip-rule="nonzero"/></clipPath><clipPath id="b8d74e1715"><rect x="0" width="92" y="0" height="145"/></clipPath><mask id="a014ff8fd5"><g filter="url(#3f40b5ee74)"><rect x="-37.5" width="450" fill="#000000" y="-37.499999" height="449.999989" fill-opacity="0.985"/></g></mask><clipPath id="dd03f24393"><rect x="0" width="90" y="0" height="118"/></clipPath><mask id="f6ab2c2399"><g filter="url(#3f40b5ee74)"><rect x="-37.5" width="450" fill="#000000" y="-37.499999" height="449.999989" fill-opacity="0.981"/></g></mask><clipPath id="a2c78d8c71"><path d="M 1 1 L 94 1 L 94 122.761719 L 1 122.761719 Z M 1 1 " clip-rule="nonzero"/></clipPath><clipPath id="36337011ae"><rect x="0" width="95" y="0" height="123"/></clipPath><mask id="06504744cf"><g filter="url(#3f40b5ee74)"><rect x="-37.5" width="450" fill="#000000" y="-37.499999" height="449.999989" fill-opacity="0.971"/></g></mask><clipPath id="1da1b739f1"><rect x="0" width="67" y="0" height="95"/></clipPath><mask id="9c52075dbf"><g filter="url(#3f40b5ee74)"><rect x="-37.5" width="450" fill="#000000" y="-37.499999" height="449.999989" fill-opacity="0.969"/></g></mask><clipPath id="6cf63e6f8f"><rect x="0" width="40" y="0" height="65"/></clipPath><mask id="171ef8d4a6"><g filter="url(#3f40b5ee74)"><rect x="-37.5" width="450" fill="#000000" y="-37.499999" height="449.999989" fill-opacity="0.982"/></g></mask><clipPath id="067ff345b6"><rect x="0" width="68" y="0" height="69"/></clipPath><mask id="2a6ef34618"><g filter="url(#3f40b5ee74)"><rect x="-37.5" width="450" fill="#000000" y="-37.499999" height="449.999989" fill-opacity="0.983"/></g></mask><clipPath id="b476e26a98"><path d="M 0.0390625 1 L 89.320312 1 L 89.320312 94 L 0.0390625 94 Z M 0.0390625 1 " clip-rule="nonzero"/></clipPath><clipPath id="c3f0b608dc"><rect x="0" width="90" y="0" height="95"/></clipPath><mask id="7715297f0a"><g filter="url(#3f40b5ee74)"><rect x="-37.5" width="450" fill="#000000" y="-37.499999" height="449.999989" fill-opacity="0.984"/></g></mask><clipPath id="1eb48392cc"><path d="M 0.878906 1 L 107 1 L 107 80 L 0.878906 80 Z M 0.878906 1 " clip-rule="nonzero"/></clipPath><clipPath id="f4224a136f"><rect x="0" width="108" y="0" height="81"/></clipPath><mask id="91c18e1c96"><g filter="url(#3f40b5ee74)"><rect x="-37.5" width="450" fill="#000000" y="-37.499999" height="449.999989" fill-opacity="0.977"/></g></mask><clipPath id="49599c0d6f"><rect x="0" width="90" y="0" height="61"/></clipPath></defs><g mask="url(#0f908de542)"><g transform="matrix(1, 0, 0, 1, 98, 0)"><g clip-path="url(#ae102ea6a6)"><g clip-path="url(#88272fc405)"><path fill="#ffffff" d="M 82.46875 3.085938 C 92.601562 0.484375 97.027344 4.128906 95.746094 14.019531 C 85.984375 29.90625 75.828125 45.527344 65.289062 60.882812 C 60.542969 62.804688 55.855469 62.542969 51.230469 60.101562 C 44.460938 59.058594 37.691406 59.058594 30.921875 60.101562 C 24.496094 62.015625 18.246094 64.355469 12.179688 67.128906 C 4.542969 64.480469 1.160156 59.273438 2.023438 51.507812 C 28.808594 35.132812 55.625 18.992188 82.46875 3.085938 Z M 82.46875 3.085938 " fill-opacity="1" fill-rule="evenodd"/></g></g></g></g><g mask="url(#76c5e528ec)"><g transform="matrix(1, 0, 0, 1, 170, 14)"><g clip-path="url(#b71e299cf3)"><g clip-path="url(#52fac639e1)"><path fill="#ffffff" d="M 33.898438 1.582031 C 40.164062 1.585938 45.894531 3.40625 51.082031 7.050781 C 62.925781 13.882812 74.640625 20.910156 86.226562 28.136719 C 89.445312 47.824219 91.007812 67.609375 90.914062 87.496094 C 79.382812 91.734375 70.792969 99.285156 65.140625 110.144531 C 49.542969 109.761719 34.445312 106.636719 19.839844 100.769531 C 19.023438 84.257812 13.039062 69.9375 1.878906 57.816406 C 1.015625 53.253906 2.058594 49.089844 5.003906 45.320312 C 14.367188 30.5 24 15.921875 33.898438 1.582031 Z M 33.898438 1.582031 " fill-opacity="1" fill-rule="evenodd"/></g></g></g></g><g mask="url(#023519c1a2)"><g transform="matrix(1, 0, 0, 1, 267, 53)"><g clip-path="url(#20dea0454a)"><g clip-path="url(#bd296784f8)"><path fill="#ffffff" d="M 4.066406 1.632812 C 7.234375 1.378906 10.355469 1.640625 13.4375 2.414062 C 27.234375 10.089844 40.773438 18.160156 54.050781 26.625 C 55.589844 29.121094 55.851562 31.726562 54.832031 34.4375 C 48.324219 40.945312 41.816406 47.453125 35.308594 53.960938 C 32.183594 55.003906 29.058594 55.003906 25.933594 53.960938 C 18.859375 51.101562 12.089844 47.976562 5.628906 44.589844 C 4.070312 32.628906 2.507812 20.652344 0.941406 8.664062 C 0.972656 5.800781 2.011719 3.457031 4.066406 1.632812 Z M 4.066406 1.632812 " fill-opacity="1" fill-rule="evenodd"/></g></g></g></g><g mask="url(#66be707c10)"><g transform="matrix(1, 0, 0, 1, 23, 60)"><g clip-path="url(#cd376b107f)"><g clip-path="url(#1ee67cb086)"><path fill="#ffffff" d="M 57.5 0.882812 C 67.78125 1.242188 74.546875 6.449219 77.804688 16.5 C 69.707031 29.550781 66.0625 43.609375 66.871094 58.675781 C 54.738281 64.375 42.242188 69.320312 29.382812 73.515625 C 21.261719 76.925781 12.929688 79.011719 4.390625 79.765625 C 3.609375 78.984375 2.828125 78.203125 2.046875 77.421875 C 1.007812 62.84375 1.007812 48.261719 2.046875 33.683594 C 21.015625 23.300781 39.5 12.363281 57.5 0.882812 Z M 57.5 0.882812 " fill-opacity="1" fill-rule="evenodd"/></g></g></g></g><g mask="url(#c304b1f279)"><g transform="matrix(1, 0, 0, 1, 285, 88)"><g clip-path="url(#6b22c7898e)"><g clip-path="url(#1ae85a5374)"><path fill="#ffffff" d="M 48.546875 0.996094 C 54.054688 0.757812 58.480469 2.839844 61.824219 7.246094 C 62.867188 43.171875 62.867188 79.097656 61.824219 115.027344 C 49.246094 123.796875 35.96875 131.605469 21.992188 138.457031 C 16.875 136.027344 11.929688 133.425781 7.15625 130.644531 C 3.84375 118.273438 1.761719 105.777344 0.90625 93.15625 C 17.199219 84.777344 26.3125 71.5 28.242188 53.324219 C 27.59375 46.957031 25.773438 40.96875 22.773438 35.363281 C 21.734375 32.238281 21.734375 29.113281 22.773438 25.992188 C 31.203125 17.300781 39.792969 8.96875 48.546875 0.996094 Z M 48.546875 0.996094 " fill-opacity="1" fill-rule="evenodd"/></g></g></g></g><g mask="url(#0d710ee4ca)"><g transform="matrix(1, 0, 0, 1, 159, 124)"><g clip-path="url(#b8d74e1715)"><g clip-path="url(#0a7148b338)"><path fill="#ffffff" d="M 27.71875 0.925781 C 41.957031 3.832031 56.015625 7.476562 69.890625 11.859375 C 71.304688 22.425781 74.691406 32.320312 80.046875 41.539062 C 84.367188 45.0625 87.753906 49.230469 90.199219 54.035156 C 77.636719 82.601562 64.621094 110.976562 51.148438 139.164062 C 50.035156 141.417969 48.214844 142.71875 45.679688 143.070312 C 43.75 141.328125 41.929688 141.328125 40.214844 143.070312 C 26.738281 106.03125 13.722656 68.804688 1.164062 31.382812 C 4.964844 25.5 9.910156 20.554688 16.003906 16.542969 C 19.578125 10.890625 23.484375 5.683594 27.71875 0.925781 Z M 27.71875 0.925781 " fill-opacity="1" fill-rule="evenodd"/></g></g></g></g><g mask="url(#a014ff8fd5)"><g transform="matrix(1, 0, 0, 1, 23, 128)"><g clip-path="url(#dd03f24393)"><path fill="#ffffff" d="M 65.308594 1.609375 C 67.964844 1.359375 70.566406 1.621094 73.121094 2.390625 C 77.488281 8.324219 82.433594 13.792969 87.960938 18.792969 C 88.21875 20.355469 88.480469 21.917969 88.742188 23.480469 C 81.117188 41.335938 73.046875 59.039062 64.527344 76.589844 C 41.535156 78.757812 27.214844 90.996094 21.574219 113.296875 C 15.996094 115.605469 10.265625 116.648438 4.390625 116.417969 C 3.609375 115.636719 2.828125 114.859375 2.046875 114.078125 C 1.007812 84.917969 1.007812 55.761719 2.046875 26.601562 C 3.457031 24.726562 5.28125 23.425781 7.515625 22.699219 C 27.113281 16.082031 46.378906 9.054688 65.308594 1.609375 Z M 65.308594 1.609375 " fill-opacity="1" fill-rule="evenodd"/></g></g></g><g mask="url(#f6ab2c2399)"><g transform="matrix(1, 0, 0, 1, 95, 153)"><g clip-path="url(#36337011ae)"><g clip-path="url(#a2c78d8c71)"><path fill="#ffffff" d="M 27.675781 1.601562 C 36.519531 2.335938 45.371094 3.117188 54.230469 3.945312 C 55.011719 4.726562 55.792969 5.507812 56.570312 6.289062 C 68.808594 41.953125 81.042969 77.621094 93.28125 113.289062 C 90.972656 121.3125 85.765625 123.917969 77.660156 121.097656 C 55.699219 111.546875 34.089844 101.394531 12.835938 90.636719 C 12.472656 84.257812 11.433594 78.011719 9.710938 71.894531 C 6.75 66.886719 3.886719 61.941406 1.121094 57.054688 C 8.515625 37.835938 17.367188 19.351562 27.675781 1.601562 Z M 27.675781 1.601562 " fill-opacity="1" fill-rule="evenodd"/></g></g></g></g><g mask="url(#06504744cf)"><g transform="matrix(1, 0, 0, 1, 216, 180)"><g clip-path="url(#1da1b739f1)"><path fill="#ffffff" d="M 44.132812 1.15625 C 49.339844 1.675781 54.546875 2.199219 59.753906 2.71875 C 61.730469 14.433594 63.816406 26.148438 66 37.863281 C 65.742188 39.6875 65.480469 41.507812 65.21875 43.332031 C 57.984375 49.402344 54.339844 57.210938 54.285156 66.761719 C 40.355469 75.941406 26.035156 84.535156 11.332031 92.535156 C 8.25 93.308594 5.125 93.570312 1.957031 93.316406 C 1.992188 89.527344 2.773438 85.882812 4.300781 82.382812 C 17.25 54.925781 30.527344 27.847656 44.132812 1.15625 Z M 44.132812 1.15625 " fill-opacity="1" fill-rule="evenodd"/></g></g></g><g mask="url(#9c52075dbf)"><g transform="matrix(1, 0, 0, 1, 309, 219)"><g clip-path="url(#6cf63e6f8f)"><path fill="#ffffff" d="M 27.671875 1.207031 C 31.644531 0.589844 35.03125 1.632812 37.824219 4.332031 C 38.867188 23.597656 38.867188 42.863281 37.824219 62.128906 C 35.65625 63.773438 33.3125 64.03125 30.796875 62.910156 C 19.996094 52.894531 10.101562 42.222656 1.117188 30.886719 C 2.117188 26.238281 2.898438 21.554688 3.460938 16.828125 C 11.5 11.390625 19.570312 6.183594 27.671875 1.207031 Z M 27.671875 1.207031 " fill-opacity="1" fill-rule="evenodd"/></g></g></g><g mask="url(#171ef8d4a6)"><g transform="matrix(1, 0, 0, 1, 23, 248)"><g clip-path="url(#067ff345b6)"><path fill="#ffffff" d="M 23.136719 1.886719 C 28.363281 2.6875 32.007812 5.550781 34.070312 10.476562 C 40.957031 15.808594 48.765625 18.152344 57.5 17.507812 C 60.738281 31.25 63.863281 45.046875 66.871094 58.902344 C 67.402344 64.097656 65.058594 66.960938 59.84375 67.492188 C 40.0625 56.824219 20.796875 45.367188 2.046875 33.128906 C 1.007812 25.316406 1.007812 17.507812 2.046875 9.695312 C 9.164062 6.894531 16.191406 4.292969 23.136719 1.886719 Z M 23.136719 1.886719 " fill-opacity="1" fill-rule="evenodd"/></g></g></g><g mask="url(#2a6ef34618)"><g transform="matrix(1, 0, 0, 1, 89, 253)"><g clip-path="url(#c3f0b608dc)"><g clip-path="url(#b476e26a98)"><path fill="#ffffff" d="M 10.246094 1.574219 C 16.351562 1.203125 22.078125 2.503906 27.425781 5.476562 C 47.257812 13.960938 66.785156 23.074219 86.003906 32.8125 C 87.828125 40.59375 88.867188 48.40625 89.125 56.242188 C 76.84375 69.050781 64.085938 81.285156 50.855469 92.953125 C 48.0625 93.761719 45.460938 93.242188 43.046875 91.390625 C 35.757812 87.222656 28.46875 83.058594 21.179688 78.894531 C 18.835938 77.59375 17.011719 75.769531 15.710938 73.425781 C 10.765625 53.640625 5.820312 33.855469 0.871094 14.070312 C 3.382812 9.472656 6.503906 5.308594 10.246094 1.574219 Z M 10.246094 1.574219 " fill-opacity="1" fill-rule="evenodd"/></g></g></g></g><g mask="url(#7715297f0a)"><g transform="matrix(1, 0, 0, 1, 224, 255)"><g clip-path="url(#f4224a136f)"><g clip-path="url(#1eb48392cc)"><path fill="#ffffff" d="M 48.628906 1.136719 C 53.199219 1.074219 57.363281 2.375 61.125 5.039062 C 66.664062 6.160156 72.128906 5.898438 77.527344 4.257812 C 89.242188 11.808594 98.875 21.441406 106.425781 33.15625 C 105.484375 35.664062 103.921875 37.746094 101.738281 39.40625 C 79.09375 52.027344 56.703125 65.042969 34.570312 78.457031 C 31.445312 79.496094 28.324219 79.496094 25.199219 78.457031 C 16.554688 70.335938 8.484375 61.746094 0.988281 52.683594 C 2.429688 44.546875 3.472656 36.214844 4.113281 27.6875 C 19.179688 18.992188 34.019531 10.140625 48.628906 1.136719 Z M 48.628906 1.136719 " fill-opacity="1" fill-rule="evenodd"/></g></g></g></g><g mask="url(#91c18e1c96)"><g transform="matrix(1, 0, 0, 1, 151, 314)"><g clip-path="url(#49599c0d6f)"><path fill="#ffffff" d="M 32.59375 1.492188 C 44.570312 3.308594 56.546875 3.570312 68.519531 2.273438 C 75.027344 8.78125 81.535156 15.289062 88.046875 21.796875 C 89.085938 24.402344 89.085938 27.003906 88.046875 29.609375 C 72.03125 39.832031 55.628906 49.464844 38.839844 58.503906 C 31.492188 58.761719 24.726562 56.679688 18.535156 52.257812 C 13.066406 48.871094 7.601562 45.488281 2.132812 42.105469 C 1.09375 38.980469 1.09375 35.855469 2.132812 32.730469 C 12.605469 22.523438 22.757812 12.109375 32.59375 1.492188 Z M 32.59375 1.492188 " fill-opacity="1" fill-rule="evenodd"/></g></g></g></svg>